<?xml version="1.0" encoding="utf-8"?>
<!-- Generator: Adobe Illustrator 19.1.0, SVG Export Plug-In . SVG Version: 6.00 Build 0)  -->
<svg version="1.1" id="Logo" xmlns="http://www.w3.org/2000/svg" xmlns:xlink="http://www.w3.org/1999/xlink" x="0px" y="0px"
	 width="120px" height="45px" viewBox="0 0 120 45" enable-background="new 0 0 120 45" xml:space="preserve">
<g>
	<polygon fill="#FF0055" points="22.269,0 11.135,6.429 11.135,19.286 0,25.714 0,38.571 11.135,45 22.269,38.571 33.404,32.143 
		33.404,19.286 33.404,6.429 	"/>
	<g>
		<path fill="#333333" d="M47.948,34.518c0,3.312-1.764,4.751-4.463,4.751c-0.504,0-1.044-0.036-1.584-0.144v-2.627
			c0.432,0.072,0.828,0.072,1.26,0.072c1.332,0,1.728-0.648,1.728-2.556V13.533h3.06V34.518z M47.948,10.186h-3.06V6.442h3.06
			V10.186z"/>
		<path fill="#333333" d="M66.129,32.143h-2.88v-2.952h-0.072c-1.296,2.304-3.384,3.384-6.047,3.384
			c-4.896,0-6.407-2.808-6.407-6.803V13.533h3.06v12.599c0,2.268,1.44,3.744,3.78,3.744c3.708,0,5.507-2.484,5.507-5.832V13.533
			h3.06V32.143z"/>
		<path fill="#333333" d="M85.439,32.071c-0.54,0.324-1.224,0.504-2.196,0.504c-1.583,0-2.591-0.864-2.591-2.88
			c-1.692,1.98-3.959,2.88-6.551,2.88c-3.384,0-6.155-1.512-6.155-5.22c0-4.211,3.131-5.111,6.299-5.723
			c3.383-0.648,6.263-0.432,6.263-2.735c0-2.664-2.196-3.096-4.14-3.096c-2.592,0-4.5,0.792-4.644,3.527h-3.06
			c0.18-4.607,3.744-6.227,7.883-6.227c3.348,0,6.983,0.756,6.983,5.111v9.575c0,1.44,0,2.088,0.972,2.088
			c0.252,0,0.54-0.036,0.936-0.18V32.071z M80.472,22.532c-1.188,0.864-3.492,0.9-5.543,1.26c-2.016,0.36-3.743,1.08-3.743,3.348
			c0,2.016,1.728,2.736,3.599,2.736c4.032,0,5.688-2.52,5.688-4.211V22.532z"/>
		<path fill="#333333" d="M86.708,6.442h3.06v15.226l8.495-8.135h4.104L94.987,20.3l7.919,11.842h-3.888l-6.371-9.719l-2.879,2.664
			v7.055h-3.06V6.442z"/>
		<path fill="#333333" d="M118.797,32.143h-2.88v-2.952h-0.072c-1.296,2.304-3.384,3.384-6.047,3.384
			c-4.896,0-6.407-2.808-6.407-6.803V13.533h3.06v12.599c0,2.268,1.44,3.744,3.78,3.744c3.708,0,5.507-2.484,5.507-5.832V13.533
			h3.06V32.143z"/>
	</g>
</g>
<g>
</g>
<g>
</g>
<g>
</g>
<g>
</g>
<g>
</g>
<g>
</g>
<g>
</g>
<g>
</g>
<g>
</g>
<g>
</g>
<g>
</g>
<g>
</g>
<g>
</g>
<g>
</g>
<g>
</g>
</svg>
