<?xml version="1.0" encoding="utf-8"?>
<!-- Generator: Adobe Illustrator 19.1.0, SVG Export Plug-In . SVG Version: 6.00 Build 0)  -->
<svg version="1.1" id="Capa_1" xmlns="http://www.w3.org/2000/svg" xmlns:xlink="http://www.w3.org/1999/xlink" x="0px" y="0px"
	 width="125px" height="45px" viewBox="0 0 125 45" enable-background="new 0 0 125 45" xml:space="preserve">
<g>
	<polygon fill="#FF0055" points="22,0 11,6.429 11,19.286 0,25.714 0,38.571 11.135,45 22.067,38.571 33,32.143 33,19.286 33,6.429 
			"/>
	<g>
		<path fill="#333333" d="M45,14h4v19.727c0,3.708-1.394,5.795-5.246,5.795c-0.792,0-1.754-0.072-1.754-0.144v-3.239
			c0,0.072,0.978,0.144,1.375,0.144c1.512,0,1.625-0.9,1.625-2.736V14z M45,6h4v4h-4V6z"/>
		<path fill="#333333" d="M68,32h-4v-2h-0.013c-1.008,1-3.115,2.871-5.167,2.871c-4.859,0-6.821-2.672-6.821-7.532V14h4v10.943
			c0,3.276,1.264,4.463,3.496,4.463c3.419,0,4.504-2.195,4.504-5.075V14h4V32z"/>
		<path fill="#333333" d="M87,28.003c0,1.008,0.226,1.404,0.982,1.404c0.252,0,0.018,0,1.018-0.072v2.844
			c-1,0.216-2.069,0.468-2.752,0.468c-1.655,0-2.924-0.576-3.248-2.268c-1.619,1.583-4.287,2.268-6.483,2.268
			c-3.348,0-6.391-1.8-6.391-5.435c0-4.644,3.697-5.399,7.153-5.795c2.951-0.54,5.574-0.216,5.574-2.628
			c0-2.124-2.199-2.63-3.854-2.63c-2.304,0-3.926,0.842-4.106,2.842h-4.104c0.288-5,4.506-6.081,8.609-6.081
			c3.636,0,7.602,1.586,7.602,5.51V28.003z M83,22.82c-2,0.828-3.442,0.792-5.242,1.116c-1.764,0.288-3.449,0.936-3.449,3.096
			c0,1.836,2.491,2.375,3.932,2.375c1.8,0,4.759-0.936,4.759-3.527V22.82z"/>
		<path fill="#333333" d="M90,6h4v15.056L101.578,14h5.039l-7.127,6.534L107.302,32h-5.004l-5.768-8.963L94,25.483V32h-4V6z"/>
		<path fill="#333333" d="M124,32h-4v-2h0.132c-1.008,1-3.187,2.871-5.239,2.871c-4.859,0-6.893-2.672-6.893-7.532V14h4v10.943
			c0,3.276,1.264,4.463,3.496,4.463c3.419,0,4.504-2.195,4.504-5.075V14h4V32z"/>
	</g>
</g>
<g>
</g>
<g>
</g>
<g>
</g>
<g>
</g>
<g>
</g>
<g>
</g>
<g>
</g>
<g>
</g>
<g>
</g>
<g>
</g>
<g>
</g>
<g>
</g>
<g>
</g>
<g>
</g>
<g>
</g>
</svg>
