<?xml version="1.0" encoding="utf-8"?>
<!-- Generator: Adobe Illustrator 19.1.0, SVG Export Plug-In . SVG Version: 6.00 Build 0)  -->
<svg version="1.1" id="Capa_1" xmlns="http://www.w3.org/2000/svg" xmlns:xlink="http://www.w3.org/1999/xlink" x="0px" y="0px"
	 width="220px" height="44px" viewBox="0 0 220 44" enable-background="new 0 0 220 44" xml:space="preserve">
<g id="Controles">
	<g>
		<rect x="176" y="0" fill="#FFFFFF" width="44" height="44"/>
		<g>
			<g>
				<g>
					<path fill="#CCCCCC" d="M204.1875,25.06592c-0.59131,0.81494-1.30664,1.53027-2.12158,2.12158l4.68701,4.68701l2.12158-2.12158
						L204.1875,25.06592z"/>
				</g>
			</g>
			<path fill="#CCCCCC" d="M204,19.5c0,4.14214-3.35786,7.5-7.5,7.5s-7.5-3.35786-7.5-7.5s3.35786-7.5,7.5-7.5
				S204,15.35786,204,19.5z M196.5,14.5c-2.76143,0-5,2.23858-5,5s2.23857,5,5,5s5-2.23858,5-5S199.26143,14.5,196.5,14.5z"/>
		</g>
	</g>
	<g>
		<rect x="132" y="0" fill="#FFFFFF" width="44" height="44"/>
		<g opacity="0.2">
			<path fill="none" stroke="#000000" stroke-width="2.5" stroke-linecap="square" stroke-miterlimit="10" d="M154.071,18.03238
				c-2.09148,0-3.58876,1.89503-3.58876,3.8205s1.89372,3.8205,3.98521,3.8205h2.99408v-4.15462
				C157.46153,19.59329,156.16249,18.03238,154.071,18.03238z"/>
			<path fill="none" stroke="#000000" stroke-width="2.5" stroke-linecap="square" stroke-miterlimit="10" d="M158.84616,31
				h-4.09709c-5.27623,0-9.75128-4.24491-9.74907-9.10234c0.00246-5.38696,4.84584-9.82259,10.91068-8.73137
				C160.35329,13.96563,163,17.49757,163,21.66493v0.0936c0,1.80275-0.63449,3.91485-2.57045,3.91485h-2.50647"/>
		</g>
	</g>
	<g>
		<rect x="88" y="0" fill="#FFFFFF" width="44" height="44"/>
		<g>
			<path opacity="0.2" d="M110,37.5c-8.54688,0-15.5-6.95313-15.5-15.5S101.45313,6.5,110,6.5s15.5,6.95313,15.5,15.5
				S118.54688,37.5,110,37.5z"/>
			<circle fill="#FFFFFF" cx="110" cy="22" r="13"/>
		</g>
	</g>
	<g>
		<rect x="44" y="0" fill="#FFFFFF" width="44" height="44"/>
		<g>
			<path opacity="0.2" d="M75,32H57V12h18V32z M72,27H60v3h12V27z"/>
		</g>
	</g>
	<g>
		<rect x="0" y="0" fill="#FFFFFF" width="44" height="44"/>
		<g opacity="0.2">
			<rect x="13" y="14" width="18" height="3"/>
			<rect x="13" y="21" width="18" height="3"/>
			<rect x="13" y="28" width="18" height="3"/>
		</g>
	</g>
</g>
</svg>
