<?xml version="1.0" encoding="utf-8"?>
<!-- Generator: Adobe Illustrator 19.1.0, SVG Export Plug-In . SVG Version: 6.00 Build 0)  -->
<svg version="1.1" id="Controles" xmlns="http://www.w3.org/2000/svg" xmlns:xlink="http://www.w3.org/1999/xlink" x="0px" y="0px"
	 width="220px" height="44px" viewBox="0 0 220 44" enable-background="new 0 0 220 44" xml:space="preserve">
<g opacity="0.2">
	<g>
		<g>
			<path d="M204.266,26.791c-0.695,0.946-1.529,1.78-2.475,2.475l4.7,4.7l2.475-2.475L204.266,26.791z"/>
		</g>
	</g>
	<path d="M204,20c0,4.971-4.029,9-9,9s-9-4.029-9-9s4.029-9,9-9S204,15.029,204,20z M195,14c-3.314,0-6,2.686-6,6s2.686,6,6,6
		s6-2.686,6-6S198.314,14,195,14z"/>
</g>
<path opacity="0.2" fill="none" stroke="#000000" stroke-width="3" stroke-miterlimit="10" d="M158.5,26.5v-4c0-2.209-1.791-4-4-4
	s-4,1.791-4,4s1.791,4,4,4H158.5h2c2.209,0,4-1.791,4-4c0-5.523-4.477-10-10-10s-10,4.477-10,10s4.477,10,10,10h5.5"/>
<g>
	<path opacity="0.2" d="M110,39c-9.374,0-17-7.626-17-17s7.626-17,17-17s17,7.626,17,17S119.374,39,110,39z"/>
	<circle fill="#FFFFFF" cx="110" cy="22" r="14"/>
</g>
<path opacity="0.2" d="M75,32H57V12h18V32z M72,27H60v3h12V27z"/>
<g opacity="0.2">
	<rect x="13" y="14" width="18" height="3"/>
	<rect x="13" y="21" width="18" height="3"/>
	<rect x="13" y="28" width="18" height="3"/>
</g>
</svg>
